<svg width="279" height="44" viewBox="0 0 279 44" fill="none" xmlns="http://www.w3.org/2000/svg">
<path d="M84.1269 29.6158L79.7566 23.4459H71.5816V29.6158H68.908V13.4199H81.659C83.3557 13.4199 84.6925 13.8827 85.6694 14.8081C86.6463 15.7336 87.109 16.9676 87.109 18.5615C87.109 19.2813 87.0062 19.8983 86.8006 20.4638C86.5949 21.0294 86.2864 21.4922 85.9265 21.9035C85.5666 22.3148 85.1038 22.6233 84.5897 22.829C84.0755 23.086 83.51 23.2403 82.9444 23.3431L87.2633 29.6672H84.1269V29.6158ZM83.5614 20.361C84.0755 19.9497 84.3326 19.3327 84.3326 18.5101C84.3326 16.7619 83.2015 15.8364 80.9906 15.8364H71.5816V20.978H81.2477C82.2246 20.978 82.9958 20.7723 83.5614 20.361Z" fill="#2B2B2B"/>
<path d="M111.326 21.4915C111.326 24.1651 110.246 26.2732 108.086 27.9185C107.212 28.5869 106.133 29.101 104.95 29.5123C103.716 29.8722 102.431 30.0779 100.991 30.0779C99.5515 30.0779 98.2661 29.8722 97.0322 29.5123C95.7982 29.101 94.7185 28.5869 93.8444 27.9185C91.6849 26.2732 90.6052 24.1651 90.6052 21.4915C90.6052 18.9207 91.6849 16.7613 93.8958 15.116C94.8213 14.4476 95.8496 13.882 97.0836 13.5221C98.3175 13.1108 99.6029 12.9565 100.991 12.9565C102.379 12.9565 103.665 13.1622 104.899 13.5221C106.133 13.9334 107.161 14.4476 108.086 15.116C110.246 16.7613 111.326 18.9207 111.326 21.4915ZM108.549 21.4915C108.549 19.5891 107.727 18.0467 106.133 16.8641C105.464 16.4014 104.693 15.9901 103.819 15.733C102.945 15.4759 101.968 15.3217 100.94 15.3217C99.8086 15.3217 98.7803 15.4759 97.8548 15.7844C96.9293 16.0929 96.1067 16.5042 95.4383 17.0698C94.7699 17.6354 94.2557 18.2523 93.8958 19.0236C93.5359 19.7948 93.3302 20.6175 93.3302 21.4915C93.3302 22.417 93.4845 23.2396 93.8444 24.0109C94.2043 24.7821 94.7185 25.3991 95.3869 25.9647C96.0553 26.4788 96.8265 26.9416 97.8034 27.1986C98.7803 27.4557 99.8086 27.6614 100.94 27.6614C102.122 27.6614 103.151 27.5071 104.076 27.1986C105.002 26.8901 105.824 26.4788 106.441 25.9647C107.11 25.4505 107.624 24.7821 107.984 24.0109C108.344 23.2396 108.549 22.417 108.549 21.4915Z" fill="#2B2B2B"/>
<path d="M132.303 17.9951C131.429 17.0696 130.452 16.4012 129.321 15.9899C128.19 15.5786 126.905 15.3729 125.414 15.3729C124.283 15.3729 123.254 15.5272 122.329 15.8357C121.403 16.1442 120.581 16.5555 119.964 17.1211C119.295 17.6866 118.781 18.3036 118.421 19.0748C118.061 19.8461 117.856 20.6173 117.856 21.5428C117.856 22.4683 118.01 23.2909 118.37 24.0621C118.73 24.8334 119.244 25.4504 119.912 26.0159C120.581 26.5301 121.403 26.9928 122.329 27.2499C123.306 27.5584 124.334 27.7126 125.568 27.7126C127.008 27.7126 128.293 27.507 129.373 27.0957C130.452 26.6843 131.429 26.0159 132.303 25.039L134.617 26.3244C133.435 27.7126 132.098 28.6895 130.658 29.2551C129.167 29.8207 127.419 30.1292 125.414 30.1292C123.974 30.1292 122.689 29.9235 121.455 29.5636C120.221 29.2037 119.192 28.6381 118.267 27.9697C116.108 26.3244 115.028 24.2164 115.028 21.5428C115.028 18.9206 116.108 16.8126 118.318 15.1673C119.192 14.4989 120.272 13.9333 121.455 13.5734C122.689 13.2135 123.974 13.0078 125.362 13.0078C127.368 13.0078 129.167 13.3677 130.71 14.0875C132.303 14.8074 133.589 15.8357 134.669 17.2239L132.303 17.9951Z" fill="#2B2B2B"/>
<path d="M154.566 29.6158L146.802 21.0808L141.918 24.6799V29.6158H139.244V13.4199H141.918V21.8006L153.229 13.4199H157.085L148.807 19.5384L157.959 29.6158H154.566Z" fill="#2B2B2B"/>
<path d="M160.736 29.6158V13.4199H177.035V15.8364H163.409V19.9497H172.87V22.3662H163.409V27.0964H177.652V29.513H160.736V29.6158Z" fill="#2B2B2B"/>
<path d="M189.837 15.8364V29.5644H187.163V15.8364H179.451V13.4199H197.601V15.8364H189.837Z" fill="#2B2B2B"/>
<path d="M203.102 15.8364V19.9497H212.563V22.3662H203.102V29.513H200.429V13.4199H216.727V15.8364H203.102Z" fill="#2B2B2B"/>
<path d="M237.088 26.6851C236.677 27.3535 236.06 27.9705 235.289 28.4847C234.517 28.9988 233.54 29.4101 232.409 29.6672C231.278 29.9243 229.993 30.0785 228.605 30.0785C227.165 30.0785 225.931 29.9243 224.748 29.6672C223.566 29.4101 222.64 28.9988 221.869 28.4847C221.098 27.9705 220.481 27.3535 220.07 26.6851C219.658 25.9653 219.453 25.2455 219.453 24.4228V13.4199H222.126V23.7544C222.126 25.0398 222.692 26.0167 223.772 26.6851C224.851 27.3535 226.497 27.7134 228.656 27.7134C230.764 27.7134 232.409 27.3535 233.489 26.6851C234.569 26.0167 235.134 25.0398 235.134 23.7544V13.4199H237.808V24.3714C237.757 25.1941 237.499 25.9653 237.088 26.6851Z" fill="#2B2B2B"/>
<path d="M243.001 29.6158V13.4199H259.3V15.8364H245.675V19.9497H255.135V22.3662H245.675V27.0964H259.968V29.513H243.001V29.6158Z" fill="#2B2B2B"/>
<path d="M263.567 29.6158V13.4199H266.241V27.1479H278.734V29.5644H263.567V29.6158Z" fill="#2B2B2B"/>
<path d="M22.1714 20.3605H7.92927V6.52977H12.8652L8.44343 0H0.679688V43.5489H7.92927V26.9417H26.5931L22.1714 20.3605Z" fill="#2B2B2B"/>
<path d="M42.8917 25.1935C44.28 24.5765 45.4625 23.7024 46.4908 22.6227C47.5191 21.543 48.2904 20.309 48.8559 18.8179C49.4215 17.3269 49.6786 15.6302 49.6786 13.7278C49.6786 9.46031 48.3932 6.1183 45.8224 3.70177C43.2516 1.23383 39.6526 0.0512695 35.0252 0.0512695H12.6594L17.1326 6.52962H33.3285C39.3441 6.52962 42.3262 8.89474 42.3262 13.6764C42.3262 15.8358 41.6064 17.4811 40.1667 18.6637C38.7271 19.7948 36.6705 20.3604 33.9454 20.3604H26.4902L42.1719 43.4974H50.0899L38.4186 26.5817C40.0125 26.2732 41.5035 25.8104 42.8917 25.1935Z" fill="#2B2B2B"/>
</svg>
