<svg width="254" height="44" viewBox="0 0 254 44" fill="none" xmlns="http://www.w3.org/2000/svg">
<path d="M40.9755 22.941C40.4457 19.8058 37.1635 18.0737 34.683 19.689C33.3753 20.6519 32.7688 22.1031 32.4107 24.4298C32.387 24.6228 32.3227 24.8087 32.2222 24.9752C32.1216 25.1418 31.9871 25.2851 31.8274 25.3961C31.6675 25.507 31.4861 25.583 31.295 25.619C31.1038 25.6551 30.9073 25.6504 30.7181 25.6052C27.3969 24.821 23.9984 24.411 20.586 24.3828C17.1736 24.411 13.7752 24.821 10.4539 25.6052C10.2647 25.6506 10.0681 25.6554 9.87686 25.6195C9.68566 25.5835 9.50418 25.5076 9.34432 25.3966C9.18457 25.2856 9.05 25.1422 8.94949 24.9755C8.84908 24.8089 8.78493 24.6229 8.76131 24.4298C8.40179 22.1019 7.79967 20.654 6.48895 19.689C4.01539 18.0834 0.724501 19.8046 0.196609 22.941C-0.649826 26.7963 1.20733 33.0495 6.33996 37.046C7.05639 37.6121 7.94228 37.9212 8.85535 37.9236H32.3166C32.7404 37.9254 33.1615 37.8565 33.5626 37.7199C39.3901 34.7818 41.9571 26.8447 40.9755 22.941Z" fill="#2B2B2B"/>
<path d="M6.63 17.9729C8.87478 19.1171 9.76016 20.9676 10.2895 24.038C13.6667 23.2555 17.1195 22.8456 20.5861 22.8156C24.0547 22.8474 27.5097 23.2547 30.8906 24.0302C31.4281 20.9605 32.2865 19.1242 34.5421 17.9729L35.6706 6.39114C35.7546 5.50285 35.5407 4.61185 35.0626 3.8585C34.5845 3.10516 33.8693 2.5323 33.0298 2.23017C24.9977 -0.743474 16.1665 -0.74339 8.13453 2.23042C7.2967 2.53431 6.58361 3.1078 6.10707 3.86086C5.63051 4.61394 5.41754 5.50393 5.50157 6.39114L6.63 17.9729ZM9.97602 5.73291C16.8396 3.31259 24.3247 3.31267 31.1884 5.73316C31.3555 5.78893 31.4987 5.90006 31.5941 6.04819C31.6896 6.19633 31.7317 6.37259 31.7134 6.54787L30.5205 18.8244C30.4968 19.0284 30.394 19.2149 30.2341 19.3438C30.0744 19.4727 29.8703 19.5339 29.666 19.5139C29.4616 19.494 29.2732 19.3947 29.1414 19.2374C29.0095 19.08 28.9446 18.8771 28.9607 18.6724L30.0991 7.01803C27.0272 6.00896 23.8192 5.47518 20.5861 5.43514C17.3529 5.47518 14.1449 6.00896 11.0731 7.01803L12.2115 18.6725C12.2283 18.8776 12.1639 19.0812 12.0319 19.2391C11.9 19.3972 11.7112 19.497 11.5064 19.5169C11.3016 19.537 11.097 19.4756 10.937 19.3461C10.7771 19.2167 10.6744 19.0294 10.6513 18.8249L9.451 6.54787C9.43595 6.37308 9.47942 6.19826 9.57439 6.05078C9.66937 5.90332 9.81062 5.79153 9.97602 5.73291Z" fill="#2B2B2B"/>
<path d="M8.40083 39.4669C7.71898 39.4205 7.05312 39.2395 6.4418 38.9341L6.18321 39.8039C5.11572 43.7856 10.9241 45.5371 12.1935 41.5826L12.8126 39.4904C12.5898 39.4775 8.46352 39.5157 8.40083 39.4669Z" fill="#2B2B2B"/>
<path d="M34.7304 38.9424C33.283 39.7811 29.975 39.4215 28.3518 39.4909L28.9787 41.591C29.2208 42.3819 29.7656 43.0451 30.4945 43.4361C31.2234 43.8271 32.0772 43.9142 32.87 43.6785C33.6628 43.4429 34.3304 42.9035 34.7273 42.1778C35.1242 41.4521 35.2182 40.599 34.989 39.8044L34.7304 38.9424Z" fill="#2B2B2B"/>
<path d="M56.1514 7.36825C56.7644 6.92248 57.4888 6.62993 58.3247 6.49061C58.4639 6.46276 58.6729 6.44882 58.9515 6.44882C60.066 6.44882 61.0412 6.81103 61.877 7.53542C62.7129 8.23199 63.3119 9.23502 63.6741 10.5445L67.2265 22.7061L70.7788 10.1683C71.0575 9.19322 71.4196 8.42696 71.8654 7.86976C72.3113 7.31256 72.8128 6.92248 73.37 6.69957C73.9551 6.47668 74.5402 6.36523 75.1253 6.36523C76.0726 6.36523 76.9084 6.69958 77.6328 7.36825C78.3851 8.00903 78.9423 8.94247 79.3045 10.1683L82.8569 22.7061L86.4093 10.5445C86.7715 9.23502 87.3705 8.23199 88.2063 7.53542C89.0701 6.81103 90.0591 6.44882 91.1736 6.44882C91.4244 6.44882 91.7726 6.47668 92.2184 6.5324C92.6642 6.58813 93.2214 6.85282 93.8901 7.32645C94.5588 7.80007 95.0882 8.41306 95.4782 9.16533C95.8683 9.88969 96.0633 10.6002 96.0633 11.2967C96.0633 11.6032 96.0215 11.8818 95.938 12.1326L90.5049 31.8587C89.5019 35.4251 87.3844 37.2081 84.1525 37.2081C82.7594 37.2081 81.5056 36.7902 80.3911 35.9544C79.3045 35.1185 78.5384 34.004 78.0925 32.6109L75.0417 23.0405L71.9908 32.6527C71.545 34.0458 70.7788 35.1603 69.6922 35.9961C68.6056 36.832 67.3518 37.2499 65.9309 37.2499C62.699 37.2499 60.5815 35.4668 59.5784 31.9005L54.1454 12.1326C54.0618 11.8262 54.02 11.5336 54.02 11.255C54.02 10.5584 54.2011 9.8619 54.5633 9.16533C54.9534 8.44096 55.4828 7.84186 56.1514 7.36825Z" fill="#2B2B2B"/>
<path d="M97.3491 12.0491C97.3491 10.4609 97.7811 9.19326 98.6447 8.24593C99.5363 7.27081 100.707 6.7832 102.156 6.7832H111.141C114.54 6.7832 117.312 7.81411 119.458 9.87584C121.603 11.9376 122.676 14.5009 122.676 17.5657C122.676 20.4076 121.756 22.7758 119.918 24.6704C118.106 26.565 115.668 27.6934 112.604 28.0556L110.765 28.181H107.004V32.3184C107.004 33.7394 106.529 34.9096 105.583 35.829C104.635 36.7485 103.507 37.2082 102.197 37.2082C100.86 37.2082 99.7174 36.7206 98.7701 35.7454C97.8228 34.7424 97.3491 33.5722 97.3491 32.2349V12.0491ZM112.478 19.1538C112.952 18.6802 113.189 18.1369 113.189 17.5239C113.189 16.9388 112.952 16.4234 112.478 15.9776C112.004 15.5317 111.461 15.3089 110.849 15.3089H107.004V19.8225H110.849C111.489 19.8225 112.032 19.5996 112.478 19.1538Z" fill="#2B2B2B"/>
<path d="M139.338 20.7417C140.341 20.7417 141.191 21.1039 141.887 21.8283C142.584 22.5527 142.932 23.4443 142.932 24.503C142.932 25.5339 142.57 26.4116 141.845 27.136C141.121 27.8603 140.272 28.2226 139.296 28.2226H127.594C126.564 28.2226 125.671 27.8603 124.919 27.136C124.167 26.4116 123.791 25.5339 123.791 24.503C123.791 23.5 124.153 22.6085 124.877 21.8283C125.658 21.1039 126.564 20.7417 127.594 20.7417H139.338Z" fill="#2B2B2B"/>
<path d="M145.183 28.807C145.936 27.6368 146.924 27.0517 148.151 27.0517C148.373 27.0517 148.596 27.0517 148.819 27.0517C148.903 27.0517 149.167 27.1074 149.613 27.2188L151.452 27.7204L153.124 28.1383L154.336 28.4308L154.796 28.5562L155.506 28.6816C156.147 28.7652 156.648 28.807 157.011 28.807C157.233 28.807 157.456 28.7931 157.679 28.7652C157.902 28.7095 158.055 28.6677 158.139 28.6398C158.641 28.4726 158.989 28.3055 159.184 28.1383C159.406 27.9432 159.518 27.7065 159.518 27.4278C159.518 27.1771 159.378 26.9542 159.1 26.7591L158.766 26.6338L157.972 26.383L157.429 26.2158L155.214 25.6725L154.796 25.5889L152.037 24.7949C151.257 24.572 150.546 24.3352 149.906 24.0844C149.293 23.8336 148.721 23.5411 148.192 23.2068C147.049 22.5102 146.172 21.5907 145.56 20.4485C144.946 19.2783 144.64 18.0106 144.64 16.6453C144.64 15.5308 144.834 14.4582 145.225 13.4273C145.643 12.3686 146.284 11.3656 147.148 10.4182C148.011 9.4709 149.154 8.66295 150.575 7.99427C152.023 7.29769 153.639 6.83802 155.423 6.61512C156.175 6.53154 156.912 6.48975 157.638 6.48975C159.169 6.48975 160.688 6.71265 162.193 7.15843C163.697 7.60424 164.826 8.11965 165.578 8.70474C166.33 9.26194 166.846 9.98641 167.124 10.878C167.208 11.1287 167.263 11.4352 167.292 11.7974C167.319 12.1317 167.333 12.3128 167.333 12.3407C167.333 13.2044 167.11 13.9427 166.665 14.5557C165.856 15.7259 164.769 16.311 163.405 16.311C162.624 16.311 161.76 16.1717 160.814 15.8931L160.479 15.7677L159.267 15.3916L158.766 15.2662L157.596 14.9736L157.011 14.8482L156.593 14.7647L156.049 14.7229C155.297 14.7229 154.781 14.8344 154.503 15.0572C154.224 15.2801 154.085 15.5169 154.085 15.7677C154.085 15.9349 154.169 16.0881 154.336 16.2274L155.005 16.52L155.799 16.7289L156.091 16.8125L156.927 17.0215L158.306 17.3558L161.065 18.1081C162.429 18.4981 163.641 18.9578 164.7 19.4872C166.177 20.2395 167.319 21.2843 168.127 22.6217C168.935 23.9311 169.339 25.3521 169.339 26.8845C169.339 27.9711 169.158 29.0159 168.796 30.0189C168.434 30.9941 167.835 31.9693 166.999 32.9444C165.717 34.449 164.074 35.5356 162.068 36.2042C160.062 36.845 157.568 37.1655 154.587 37.1655C152.915 37.1655 151.479 37.0122 150.282 36.7058C149.084 36.3714 148.067 35.9535 147.231 35.452C146.172 34.839 145.448 34.2121 145.058 33.5713C144.667 32.9026 144.473 32.0807 144.473 31.1056C144.473 30.2976 144.709 29.5313 145.183 28.807Z" fill="#2B2B2B"/>
<path d="M173.399 13.2192C174.877 11.1017 176.785 9.42998 179.125 8.2041C181.465 6.9782 183.959 6.36523 186.606 6.36523C189.281 6.36523 191.775 6.96427 194.087 8.1623C196.4 9.36039 198.308 11.046 199.812 13.2192C201.679 15.866 202.612 18.7358 202.612 21.8285C202.612 24.9211 201.679 27.7909 199.812 30.4377C198.336 32.611 196.427 34.2965 194.087 35.4946C191.775 36.6927 189.281 37.2917 186.606 37.2917C183.931 37.2917 181.438 36.6927 179.125 35.4946C176.813 34.2965 174.904 32.611 173.399 30.4377C171.533 27.763 170.599 24.8932 170.599 21.8285C170.599 18.7637 171.533 15.8939 173.399 13.2192ZM192.958 20.5329C192.68 18.8055 191.942 17.4124 190.743 16.3536C189.573 15.2949 188.194 14.7655 186.606 14.7655C184.795 14.7655 183.263 15.4342 182.009 16.7716C180.783 18.081 180.17 19.7667 180.17 21.8285C180.17 23.8902 180.783 25.5898 182.009 26.9272C183.263 28.2366 184.782 28.8914 186.564 28.8914C186.982 28.8914 187.4 28.8496 187.818 28.766C189.351 28.4596 190.604 27.6794 191.579 26.4257C192.582 25.144 193.084 23.6256 193.084 21.8703C193.084 21.4523 193.042 21.0065 192.958 20.5329Z" fill="#2B2B2B"/>
<path d="M204.647 11.6729C204.647 10.2799 205.106 9.12358 206.026 8.20414C206.974 7.25686 208.144 6.7832 209.536 6.7832H220.946C222.116 6.7832 223.119 7.20113 223.955 8.03697C224.791 8.87282 225.209 9.86195 225.209 11.0042C225.209 12.1465 224.777 13.1496 223.913 14.0133C223.022 14.8213 222.019 15.2253 220.904 15.2253H214.343V18.1926H219.901C221.043 18.1926 222.019 18.6105 222.826 19.4463C223.634 20.2822 224.038 21.2713 224.038 22.4136C224.038 23.5838 223.634 24.5589 222.826 25.3391C222.019 26.1193 221.029 26.5093 219.859 26.5093H214.343V32.5692C214.343 33.9066 213.869 35.0489 212.922 35.9962C211.974 36.9435 210.832 37.4171 209.495 37.4171C208.157 37.4171 207.015 36.9435 206.068 35.9962C205.12 35.0489 204.647 33.9066 204.647 32.5692V11.6729Z" fill="#2B2B2B"/>
<path d="M231.557 11.7981C232.226 10.1264 233.187 8.83081 234.441 7.91137C235.723 6.99194 237.185 6.53223 238.829 6.53223C240.474 6.53223 241.922 6.99194 243.175 7.91137C244.457 8.80291 245.432 10.0985 246.101 11.7981L253.289 30.1868C253.652 31.1898 253.832 32.0397 253.832 32.7362C253.832 33.6835 253.582 34.5193 253.08 35.2437C252.579 35.9681 251.855 36.5254 250.907 36.9154C250.267 37.1941 249.598 37.3333 248.901 37.3333C247.898 37.3333 246.993 37.0408 246.184 36.4557C245.377 35.8427 244.778 34.9929 244.387 33.9063L243.928 32.5272H233.772L233.271 33.9063C232.881 34.9651 232.268 35.801 231.432 36.4139C230.624 37.0269 229.718 37.3333 228.715 37.3333C228.046 37.3333 227.392 37.1941 226.751 36.9154C224.801 36.0796 223.825 34.6865 223.825 32.7362C223.825 32.0397 224.007 31.1898 224.369 30.1868L231.557 11.7981ZM238.829 16.1863L236.572 24.2105H241.086L238.829 16.1863Z" fill="#2B2B2B"/>
</svg>
